<svg width="210" height="30" viewBox="0 0 210 30" fill="none" xmlns="http://www.w3.org/2000/svg">
<path d="M50.6326 15.026C50.6326 16.631 50.3101 18.0334 49.6651 19.2334C49.0201 20.4184 48.0676 21.3409 46.8076 22.0008C45.5626 22.6458 44.0626 22.9683 42.3076 22.9683H37.2676V7.10623H42.3076C44.0626 7.10623 45.5626 7.42872 46.8076 8.0737C48.0676 8.70369 49.0201 9.61866 49.6651 10.8186C50.3101 12.0036 50.6326 13.4061 50.6326 15.026ZM42.1501 21.1234C44.2201 21.1234 45.8026 20.5909 46.8976 19.5259C47.9926 18.4609 48.5401 16.961 48.5401 15.026C48.5401 13.0911 47.9926 11.5911 46.8976 10.5261C45.8176 9.44617 44.2351 8.90618 42.1501 8.90618H39.3151V21.1234H42.1501Z" fill="#444C60"/>
<path d="M64.668 7.10623L59.4705 16.961V22.9683H57.4005V16.961L52.1805 7.10623H54.5655L58.458 14.7785L62.328 7.10623H64.668Z" fill="#444C60"/>
<path d="M79.0629 22.9683H77.0154L68.7804 10.4361V22.9683H66.7329V7.10623H68.7804L77.0154 19.6609V7.10623H79.0629V22.9683Z" fill="#444C60"/>
<path d="M91.648 19.3009H84.673L83.3455 22.9683H81.1405L87.013 7.39872H89.3305L95.1805 22.9683H92.9755L91.648 19.3009ZM91.063 17.7035L88.1605 9.69366L85.258 17.7035H91.063Z" fill="#444C60"/>
<path d="M113.138 7.37622V22.9683H111.09V10.5261L106.118 22.9683H104.295L99.3004 10.5711V22.9683H97.2529V7.37622H99.7054L105.24 20.4709L110.685 7.37622H113.138Z" fill="#444C60"/>
<path d="M118.461 7.10623V22.9683H116.413V7.10623H118.461Z" fill="#444C60"/>
<path d="M128.772 6.94873C130.707 6.94873 132.305 7.42872 133.565 8.38869C134.825 9.33367 135.695 10.6311 136.175 12.2811H134.015C133.61 11.2311 132.957 10.3986 132.057 9.78366C131.157 9.15367 130.055 8.83868 128.75 8.83868C127.715 8.83868 126.785 9.09368 125.96 9.60366C125.15 10.0986 124.505 10.8186 124.025 11.7636C123.56 12.6936 123.327 13.7886 123.327 15.0485C123.327 16.2935 123.56 17.381 124.025 18.3109C124.505 19.2409 125.15 19.9609 125.96 20.4709C126.785 20.9659 127.715 21.2134 128.75 21.2134C130.055 21.2134 131.157 20.9059 132.057 20.2909C132.957 19.6609 133.61 18.8209 134.015 17.771H136.175C135.695 19.4209 134.825 20.7259 133.565 21.6859C132.305 22.6308 130.707 23.1033 128.772 23.1033C127.287 23.1033 125.975 22.7658 124.835 22.0908C123.695 21.4009 122.802 20.4484 122.157 19.2334C121.527 18.0034 121.212 16.6085 121.212 15.0485C121.212 13.4736 121.527 12.0711 122.157 10.8411C122.802 9.61116 123.695 8.65869 124.835 7.9837C125.975 7.29372 127.287 6.94873 128.772 6.94873Z" fill="#444C60"/>
<path d="M148.138 14.7785C149.098 15.0035 149.856 15.4685 150.411 16.1735C150.981 16.8785 151.266 17.696 151.266 18.6259C151.266 19.9909 150.808 21.0559 149.893 21.8208C148.993 22.5858 147.696 22.9683 146.001 22.9683H138.598V7.06123H145.821C147.441 7.06123 148.693 7.41372 149.578 8.1187C150.463 8.82368 150.906 9.82866 150.906 11.1336C150.906 12.0936 150.651 12.8961 150.141 13.5411C149.631 14.171 148.963 14.5835 148.138 14.7785ZM142.446 13.5636H144.966C146.301 13.5636 146.968 12.9936 146.968 11.8536C146.968 10.7136 146.286 10.1436 144.921 10.1436H142.446V13.5636ZM145.191 19.8409C146.616 19.8409 147.328 19.2559 147.328 18.0859C147.328 17.516 147.141 17.0735 146.766 16.7585C146.391 16.4285 145.858 16.2635 145.168 16.2635H142.446V19.8409H145.191Z" fill="#444C60"/>
<path d="M163.153 20.0659H157.19L156.2 22.9683H152.15L157.978 7.17372H162.41L168.238 22.9683H164.143L163.153 20.0659ZM162.163 17.141L160.183 11.2911L158.18 17.141H162.163Z" fill="#444C60"/>
<path d="M183.863 22.9683H180.016L173.581 13.2036V22.9683H169.733V7.06123H173.581L180.016 16.916V7.06123H183.863V22.9683Z" fill="#444C60"/>
<path d="M194.013 14.846L200.425 22.9683H195.768L190.368 15.836V22.9683H186.52V7.06123H190.368V14.0585L195.813 7.06123H200.425L194.013 14.846Z" fill="#444C60"/>
<path d="M0.821567 20.3146C0.916364 20.5508 1.15274 20.6923 1.40512 20.6763C9.83589 20.1018 18.274 20.3146 26.6026 21.3136C27.6503 21.4391 28.7066 20.9125 29.0526 19.9123C29.3517 19.0536 28.682 18.1801 27.7685 18.1481C18.8022 17.8491 9.86667 18.4237 1.09734 19.8569C0.876968 19.8889 0.742775 20.1104 0.821567 20.3146Z" fill="#CF3770"/>
<path d="M0.293268 11.3384C0.237867 11.5586 0.418843 11.7714 0.647833 11.7555C9.76434 11.1255 18.8882 11.3618 27.8866 12.4567C28.7767 12.5674 29.5412 11.7874 29.2974 10.9287C28.9983 9.88173 28.0134 9.20384 26.9263 9.17309C18.1717 8.94425 9.45656 9.50403 0.876823 10.834C0.60105 10.866 0.364674 11.0628 0.293268 11.3384Z" fill="#444C60"/>
<path d="M4.50939 15.1806C4.30503 15.2125 4.17083 15.4168 4.18684 15.621C4.20284 15.8252 4.36043 15.9987 4.56479 15.9827C13.7441 15.2974 19.2916 15.7785 27.9895 16.9595C28.9424 17.085 29.8411 16.4244 29.8645 15.4635C29.8965 14.4867 29.0926 13.7079 28.1151 13.6685C19.1808 13.3142 13.5865 13.6771 4.50939 15.1806Z" fill="#DC6D97"/>
<path d="M21.7639 2.72399C22.3548 2.75598 22.5678 1.95999 22.0396 1.69301C21.6691 1.49617 21.2837 1.3227 20.8898 1.15784C16.7138 -0.583011 12.2066 -0.291434 8.45659 1.56752C7.92844 1.82711 8.18082 2.6145 8.76438 2.59112C13.1053 2.44841 17.4389 2.49639 21.7639 2.72399Z" fill="#DC6D97"/>
<path d="M7.3526 5.80319C6.91186 5.86594 6.50189 6.10215 6.24951 6.47247C6.08454 6.71606 6.28152 7.04701 6.57207 7.03102C14.1829 6.62133 18.9104 6.92029 26.1199 7.73966C26.9472 7.83439 27.5308 6.92029 27.042 6.24363C26.2861 5.19666 25.0255 4.6455 23.7328 4.63688C17.5476 4.59013 13.7976 4.92846 7.3526 5.80319Z" fill="#CF3770"/>
<path d="M9.52826 27.7393C8.87453 27.8107 8.74033 28.7162 9.35467 28.9524C13.6021 30.6293 18.1868 30.2282 21.954 28.2118C22.545 27.8968 22.2692 27.0147 21.5995 27.0233C17.5577 27.0787 13.5307 27.3149 9.52826 27.7393Z" fill="#737988"/>
<path d="M26.6886 24.2438C27.2167 23.5672 26.728 22.5903 25.8773 22.567C18.6998 22.3775 13.1843 22.6457 5.94282 23.732C5.67443 23.7714 5.52547 24.0864 5.70644 24.2992C5.95021 24.5908 6.31339 24.7396 6.69134 24.7249C12.9873 24.4259 17.5179 24.7962 23.5061 25.4655C24.7028 25.5971 25.94 25.1961 26.6886 24.2438Z" fill="#DC6D97"/>
</svg>
